<?xml version="1.0" standalone="no"?>
<!DOCTYPE svg PUBLIC "-//W3C//DTD SVG 20010904//EN"
 "http://www.w3.org/TR/2001/REC-SVG-20010904/DTD/svg10.dtd">
<svg version="1.0" xmlns="http://www.w3.org/2000/svg"
 width="96.000000pt" height="96.000000pt" viewBox="0 0 96.000000 96.000000"
 preserveAspectRatio="xMidYMid meet">

<g transform="translate(0.000000,96.000000) scale(0.100000,-0.100000)"
fill="#000000" stroke="none">
<path d="M213 747 c-161 -161 -213 -218 -213 -237 0 -35 415 -450 450 -450 35
0 450 415 450 450 0 35 -415 450 -450 450 -19 0 -76 -52 -237 -213z m267 33
l0 -60 44 0 c35 0 48 -5 60 -22 22 -31 20 -36 -13 -40 l-29 -3 60 -144 c39
-96 57 -152 54 -167 -13 -52 -87 -56 -108 -6 -18 42 -59 82 -84 82 -33 0 -77
18 -92 38 -11 15 -14 15 -22 2 -14 -21 -40 -109 -40 -134 -1 -53 -17 -44 -134
73 l-118 118 64 57 c76 69 150 119 201 135 23 8 43 23 52 40 15 30 79 91 95
91 6 0 10 -27 10 -60z"/>
</g>
</svg>
